<svg width="25" height="24" viewBox="0 0 25 24" fill="none" xmlns="http://www.w3.org/2000/svg">
<path fill-rule="evenodd" clip-rule="evenodd" d="M16.8445 23.6663V14.6305H19.8779L20.3317 11.1095H16.8434V8.86134C16.8434 7.84168 17.1269 7.14634 18.5899 7.14634H20.4542V3.99634C19.5513 3.90026 18.6439 3.85352 17.7359 3.85634C15.0479 3.85634 13.208 5.49784 13.208 8.51134V11.1095H10.1654V14.6305H13.2069V23.6663H2.12003C1.40836 23.6663 0.832031 23.09 0.832031 22.3783V1.62101C0.832031 0.909341 1.40836 0.333008 2.12003 0.333008H22.8774C23.589 0.333008 24.1654 0.909341 24.1654 1.62101V22.3783C24.1654 23.09 23.589 23.6663 22.8774 23.6663H16.8445Z" fill="white"/>
</svg>
