<svg width="24" height="25" viewBox="0 0 24 25" fill="none" xmlns="http://www.w3.org/2000/svg">
<path fill-rule="evenodd" clip-rule="evenodd" d="M16.3445 24.1663V15.1305H19.3779L19.8317 11.6095H16.3434V9.36134C16.3434 8.34168 16.6269 7.64634 18.0899 7.64634H19.9542V4.49634C19.0513 4.40026 18.1438 4.35352 17.2359 4.35634C14.5479 4.35634 12.708 5.99784 12.708 9.01134V11.6095H9.66537V15.1305H12.7069V24.1663H1.62003C0.908365 24.1663 0.332031 23.59 0.332031 22.8783V2.12101C0.332031 1.40934 0.908365 0.833008 1.62003 0.833008H22.3774C23.089 0.833008 23.6654 1.40934 23.6654 2.12101V22.8783C23.6654 23.59 23.089 24.1663 22.3774 24.1663H16.3445Z" fill="#474243"/>
</svg>
