<svg width="25" height="24" viewBox="0 0 25 24" fill="none" xmlns="http://www.w3.org/2000/svg">
<path d="M18.3333 1.5H6.66667C5.42899 1.5 4.242 1.99167 3.36683 2.86683C2.49167 3.742 2 4.92899 2 6.16667V17.8333C2 19.071 2.49167 20.258 3.36683 21.1332C4.242 22.0083 5.42899 22.5 6.66667 22.5H18.3333C19.571 22.5 20.758 22.0083 21.6332 21.1332C22.5083 20.258 23 19.071 23 17.8333V6.16667C23 4.92899 22.5083 3.742 21.6332 2.86683C20.758 1.99167 19.571 1.5 18.3333 1.5Z" stroke="white" stroke-width="2.33333" stroke-linejoin="round"/>
<path d="M12.4987 16.6663C13.7364 16.6663 14.9234 16.1747 15.7985 15.2995C16.6737 14.4243 17.1654 13.2374 17.1654 11.9997C17.1654 10.762 16.6737 9.57501 15.7985 8.69984C14.9234 7.82467 13.7364 7.33301 12.4987 7.33301C11.261 7.33301 10.074 7.82467 9.19887 8.69984C8.3237 9.57501 7.83203 10.762 7.83203 11.9997C7.83203 13.2374 8.3237 14.4243 9.19887 15.2995C10.074 16.1747 11.261 16.6663 12.4987 16.6663Z" stroke="white" stroke-width="2.33333" stroke-linejoin="round"/>
</svg>
