<svg width="24" height="25" viewBox="0 0 24 25" fill="none" xmlns="http://www.w3.org/2000/svg">
<path d="M17.8333 2H6.16667C4.92899 2 3.742 2.49167 2.86683 3.36683C1.99167 4.242 1.5 5.42899 1.5 6.66667V18.3333C1.5 19.571 1.99167 20.758 2.86683 21.6332C3.742 22.5083 4.92899 23 6.16667 23H17.8333C19.071 23 20.258 22.5083 21.1332 21.6332C22.0083 20.758 22.5 19.571 22.5 18.3333V6.66667C22.5 5.42899 22.0083 4.242 21.1332 3.36683C20.258 2.49167 19.071 2 17.8333 2Z" stroke="#474243" stroke-width="2.33333" stroke-linejoin="round"/>
<path d="M11.9987 17.1663C13.2364 17.1663 14.4234 16.6747 15.2985 15.7995C16.1737 14.9243 16.6654 13.7374 16.6654 12.4997C16.6654 11.262 16.1737 10.075 15.2985 9.19984C14.4234 8.32467 13.2364 7.83301 11.9987 7.83301C10.761 7.83301 9.57404 8.32467 8.69887 9.19984C7.8237 10.075 7.33203 11.262 7.33203 12.4997C7.33203 13.7374 7.8237 14.9243 8.69887 15.7995C9.57404 16.6747 10.761 17.1663 11.9987 17.1663Z" stroke="#474243" stroke-width="2.33333" stroke-linejoin="round"/>
</svg>
